<?xml version="1.0" encoding="UTF-8" standalone="no"?>
<!DOCTYPE svg PUBLIC "-//W3C//DTD SVG 1.1//EN" "http://www.w3.org/Graphics/SVG/1.1/DTD/svg11.dtd">
<svg width="100%" height="100%" viewBox="0 0 840 840" version="1.1" xmlns="http://www.w3.org/2000/svg" xmlns:xlink="http://www.w3.org/1999/xlink" xml:space="preserve" xmlns:serif="http://www.serif.com/" style="fill-rule:evenodd;clip-rule:evenodd;stroke-linecap:round;stroke-linejoin:round;stroke-miterlimit:1.5;">
    <g transform="matrix(1,0,0,1,-2181.23,-7245.01)">
        <g id="colima-stopped" transform="matrix(0.410156,0,0,0.410156,458.39,7245.01)">
            <rect x="4200.44" y="0" width="2048" height="2048" style="fill:none;"/>
            <g transform="matrix(1,0,0,1,276.606,12.1054)">
                <g transform="matrix(2.4381,0,0,2.4381,-7284.62,-1167.75)">
                    <g>
                        <g transform="matrix(1,0,0,1,-1274.95,-38.3567)">
                            <path d="M6209.14,665.301C6213.44,744.668 6197.11,821.935 6179.94,899.115C6172.13,950.665 6192.97,977.421 6242.2,979.616C6321.1,978.056 6394.44,956.145 6468.38,936.422C6550.18,937.542 6539.39,1005.27 6575.13,1063.78C6532.02,1064.38 6503.87,990.16 6491.54,1004.31C6509.15,1031.27 6511.85,1044.74 6513,1063.78C6495.95,1094.53 6481.52,1122.25 6479.12,1135.98C6487.39,1199.57 6485.56,1260.18 6479.12,1319.42L6429.41,1319.42C6436.39,1227.37 6417.16,1173.07 6371.32,1157.06C6308.9,1178.16 6235.76,1183 6179.94,1157.06L6179.94,1308.65L6131.18,1308.65C6138.29,1215.46 6124.01,1160.8 6093.16,1135.98C6055.13,1083.78 6041.97,1093.7 6035.3,1004.31C6029.38,924.934 6107.4,855.52 6103.17,744.994C6082.61,740.495 6055.08,744.633 6016.69,744.994C6001.71,716.96 6009.91,695.602 6035.3,680.738C6088.23,657.891 6109.74,644.626 6131.13,638.865M6131.18,638.865C6141.9,629.026 6160.2,584.852 6157.65,545.278C6195.28,572.248 6203.34,612.399 6209.14,665.301" style="fill:white;stroke:black;stroke-width:32px;"/>
                        </g>
                        <g transform="matrix(1,0,0,1,-1274.95,-31.3567)">
                            <path d="M6193.65,964.865C6191.1,1046.97 6228.04,1072.44 6299.89,1065.14C6393.83,1062.84 6436.19,1027.03 6439.52,947.258" style="fill:none;stroke:black;stroke-width:28px;"/>
                        </g>
                        <g transform="matrix(0.626073,0,0,0.626073,1087.97,320.371)">
                            <path d="M6194.39,991.63C6200.32,1052.53 6236.53,1071.58 6299.89,1065.14C6391.1,1062.91 6433.68,1029.09 6439.13,954.112" style="fill:none;stroke:black;stroke-width:44.72px;"/>
                        </g>
                    </g>
                </g>
                <g>
                    <g transform="matrix(1.60281,0,0,1.60281,-1107.23,-11368.5)">
                        <circle cx="3876.43" cy="7513.25" r="157.418" style="fill:none;stroke:rgb(255,0,0);stroke-width:38.03px;stroke-linecap:butt;stroke-miterlimit:2;"/>
                    </g>
                    <g transform="matrix(1.13336,-1.13336,1.13336,1.13336,-7847.15,-3289.56)">
                        <path d="M3749.68,7463L4182.24,7463" style="fill:none;stroke:rgb(255,0,0);stroke-width:38.03px;stroke-miterlimit:2;"/>
                    </g>
                </g>
            </g>
        </g>
    </g>
</svg>
